<?xml version="1.0" standalone="no"?>
<!DOCTYPE svg PUBLIC "-//W3C//DTD SVG 20010904//EN"
 "http://www.w3.org/TR/2001/REC-SVG-20010904/DTD/svg10.dtd">
<svg version="1.0" xmlns="http://www.w3.org/2000/svg"
 width="512.000000pt" height="512.000000pt" viewBox="0 0 512.000000 512.000000"
 preserveAspectRatio="xMidYMid meet">
<metadata>
Created by potrace 1.14, written by Peter Selinger 2001-2017
</metadata>
<g transform="translate(0.000000,512.000000) scale(0.100000,-0.100000)"
fill="#000000" stroke="none">
<path d="M500 4753 c-58 -30 -155 -123 -163 -157 -3 -12 -12 -39 -21 -61 -13
-35 -15 -144 -16 -825 l0 -785 22 -64 c16 -45 37 -79 73 -116 45 -48 76 -67
170 -104 22 -8 234 -11 825 -9 l795 3 57 28 c69 33 119 75 150 125 12 20 26
40 30 43 25 17 29 154 26 916 l-3 798 -28 48 c-43 73 -110 136 -180 167 -40
19 -75 20 -862 20 l-821 0 -54 -27z m1683 -134 c43 -23 104 -98 111 -136 8
-49 8 -1496 0 -1545 -8 -49 -62 -110 -119 -137 -46 -21 -46 -21 -813 -19 -749
3 -769 3 -797 23 -17 11 -36 22 -44 26 -7 3 -26 30 -42 60 l-29 54 0 763 0
763 24 47 c13 26 43 62 67 80 l43 32 788 0 c569 0 795 -3 811 -11z"/>
<path d="M1342 4420 c-12 -5 -27 -21 -32 -35 -6 -15 -10 -136 -10 -275 l0
-249 -266 -3 -266 -3 -25 -29 c-28 -33 -25 -70 9 -98 18 -16 47 -18 284 -18
l264 0 0 -281 c0 -316 5 -352 52 -368 40 -14 82 8 97 50 7 21 11 134 11 315
l0 284 298 0 c322 0 316 -1 336 53 9 26 -21 84 -47 91 -12 3 -149 6 -304 6
l-283 0 0 244 c0 147 -4 255 -11 274 -7 20 -21 34 -41 41 -36 13 -36 13 -66 1z"/>
<path d="M2872 4755 c-65 -30 -141 -106 -176 -176 l-26 -53 0 -811 c0 -788 3
-864 30 -885 3 -3 16 -21 28 -41 22 -37 95 -109 110 -109 4 0 28 -10 53 -22
l44 -23 795 -3 c591 -2 803 1 825 9 138 54 206 116 243 220 l22 64 0 780 c0
461 -4 792 -9 810 -26 82 -42 110 -88 158 -27 29 -74 64 -104 80 l-54 27 -820
0 -820 0 -53 -25z m1705 -157 c27 -20 55 -52 69 -80 l24 -47 0 -762 0 -762
-27 -55 c-16 -30 -35 -57 -43 -60 -8 -3 -28 -15 -45 -26 -30 -21 -38 -21 -795
-24 -576 -2 -772 0 -795 10 -48 19 -85 47 -116 91 l-29 40 0 778 c0 456 4 788
9 802 11 28 75 98 106 115 14 8 244 11 808 12 l789 0 45 -32z"/>
<path d="M3320 4262 c-33 -4 -50 -28 -50 -69 0 -31 18 -53 185 -220 l186 -186
-201 -201 c-110 -111 -205 -208 -210 -216 -5 -8 -10 -29 -10 -46 0 -38 33 -64
82 -64 28 0 55 23 239 207 189 187 210 205 225 192 10 -8 99 -95 198 -195 100
-100 191 -186 203 -193 79 -41 146 36 95 109 -9 14 -101 110 -204 212 -104
103 -188 190 -188 195 0 4 77 85 171 178 94 94 177 182 185 197 13 24 13 32 0
63 -15 36 -27 41 -87 36 -19 -1 -73 -49 -207 -183 l-181 -181 -179 180 c-177
178 -197 192 -252 185z"/>
<path d="M515 2460 c-92 -39 -161 -111 -193 -201 l-22 -64 0 -780 c0 -461 4
-792 9 -810 27 -83 42 -111 88 -159 27 -28 74 -63 104 -78 l54 -28 820 0 c779
0 822 1 861 19 74 34 151 107 186 180 l23 46 3 793 c2 499 -1 814 -7 848 -19
99 -112 200 -224 242 -59 22 -60 22 -845 21 l-787 0 -70 -29z m1660 -141 c58
-27 111 -88 119 -137 8 -48 8 -1495 0 -1543 -7 -38 -69 -116 -111 -138 -16 -8
-238 -11 -811 -11 l-789 0 -39 31 c-22 16 -51 51 -66 77 l-28 47 0 765 0 765
28 53 c27 52 68 86 122 103 14 4 364 8 778 8 747 1 753 1 797 -20z"/>
<path d="M748 1683 c-8 -10 -18 -26 -21 -35 -9 -26 11 -73 36 -87 16 -8 190
-11 662 -9 l640 3 18 37 c17 35 17 39 2 73 l-17 35 -653 0 c-608 0 -653 -1
-667 -17z"/>
<path d="M758 1183 c-45 -28 -45 -85 1 -120 12 -9 169 -12 658 -13 l641 0 22
35 c24 39 20 69 -13 98 -19 16 -64 17 -651 17 -572 -1 -634 -2 -658 -17z"/>
<path d="M2893 2464 c-35 -13 -77 -36 -94 -51 -43 -38 -103 -121 -117 -162 -9
-25 -12 -251 -12 -843 l0 -809 26 -55 c33 -69 112 -149 178 -180 l51 -24 820
0 820 0 53 27 c29 14 75 50 104 79 47 48 62 76 89 159 5 18 9 349 9 810 l0
780 -22 64 c-32 91 -103 163 -198 202 l-72 29 -787 -1 -786 0 -62 -25z m1676
-156 c31 -19 53 -43 73 -80 l28 -53 0 -764 0 -763 -26 -48 c-14 -27 -46 -62
-69 -79 l-43 -31 -787 0 c-571 0 -792 3 -808 11 -30 16 -97 89 -108 117 -5 13
-9 366 -9 801 l0 778 28 39 c35 47 48 59 98 84 38 19 65 19 809 17 l770 -2 44
-27z"/>
<path d="M3068 1479 c-37 -14 -53 -61 -32 -100 8 -17 26 -34 40 -39 41 -16
1243 -13 1274 3 60 31 58 113 -4 135 -41 15 -1237 16 -1278 1z"/>
</g>
</svg>
